<?xml version="1.0" encoding="UTF-8"?>
<svg id="_레이어_1" data-name="레이어 1" xmlns="http://www.w3.org/2000/svg" viewBox="0 0 663.39 444.31">
  <defs>
    <style>
      .cls-1 {
        fill: #00f3ff;
      }

      .cls-1, .cls-2, .cls-3 {
        stroke-width: 0px;
      }

      .cls-2 {
        fill: #0062ff;
      }

      .cls-3 {
        fill: #fff;
      }
    </style>
  </defs>
  <g>
    <polygon class="cls-3" points="189.53 240.15 189.49 240.15 189.49 240.15 183.49 240.15 183.49 240.15 161.53 240.15 161.53 246.15 183.49 246.15 183.49 282.15 189.49 282.15 189.49 246.15 189.53 246.15 203.53 246.15 203.53 240.15 189.53 240.15 189.53 240.15"/>
    <path class="cls-3" d="M203.54,189.21v-6h-14s0,0,0,0v-.06h-6v.06h-16s0-.06,0-.06h-6v.06h-14v6h14v29.94h-14v6h14s6,0,6,0h0s16,0,16,0h0s6,0,6,0h0s14,0,14,0v-6h-14v-29.94h14ZM183.54,219.15h-16v-29.94h16v29.94Z"/>
  </g>
  <g>
    <g>
      <rect class="cls-3" x="417.71" y="183.15" width="6" height="42"/>
      <path class="cls-3" d="M386.59,183.15c-11.6,0-21,9.4-21,21s9.4,21,21,21,21-9.4,21-21-9.4-21-21-21ZM386.59,219.15c-8.28,0-15-6.72-15-15s6.72-15,15-15,15,6.72,15,15-6.72,15-15,15Z"/>
    </g>
    <g>
      <rect class="cls-2" x="365.59" y="240.15" width="42" height="6"/>
      <path class="cls-2" d="M386.59,189.15c8.28,0,15,6.72,15,15s-6.72,15-15,15v.02c-11.59,0-20.99,9.39-21,20.98h6c.01-8.27,6.72-14.98,15-14.98v-.02c11.6,0,21-9.4,21-21s-9.4-21-21-21-21,9.4-21,21h6c0-8.28,6.72-15,15-15Z"/>
    </g>
    <g>
      <rect class="cls-1" x="369.59" y="201.16" width="1.2" height="1.2"/>
      <rect class="cls-1" x="366.68" y="201.16" width="1.2" height="1.2"/>
    </g>
  </g>
  <g>
    <path class="cls-2" d="M345.54,240.15h-30s0,0,0,0h-6v42h42v-42h-6ZM345.54,276.15h-30v-30h30v30Z"/>
    <g>
      <polygon class="cls-3" points="345.59 183.15 331.59 195.97 331.59 183.15 325.59 183.15 325.59 225.15 331.59 225.15 331.59 204.1 331.59 204.1 345.59 191.28 345.59 225.15 351.59 225.15 351.59 183.15 345.59 183.15"/>
      <polygon class="cls-3" points="309.54 219.15 279.54 219.15 279.54 204.15 301.54 204.15 301.54 198.15 279.54 198.15 279.54 162.15 273.54 162.15 273.54 198.15 273.54 198.15 273.54 204.15 273.54 204.15 273.54 219.15 273.54 219.15 273.54 225.15 273.54 225.15 273.54 225.15 279.54 225.15 279.54 225.15 309.54 225.15 309.54 225.15 315.54 225.15 315.54 225.15 315.54 219.15 315.54 183.15 309.54 183.15 309.54 219.15"/>
    </g>
    <g>
      <rect class="cls-1" x="313.39" y="241.95" width="1.2" height="1.2"/>
      <rect class="cls-1" x="310.48" y="241.95" width="1.2" height="1.2"/>
    </g>
  </g>
  <g>
    <polygon class="cls-3" points="259.54 240.15 217.54 240.15 217.54 246.15 250.39 246.15 217.54 276.15 217.54 282.15 259.54 282.15 259.54 276.15 226.69 276.15 259.54 246.15 259.54 240.15"/>
    <polygon class="cls-2" points="253.54 162.15 253.54 162.15 217.54 162.15 217.54 168.15 253.54 168.15 253.54 177.15 217.54 177.15 217.54 183.15 217.54 219.15 217.54 225.15 223.54 225.15 259.54 225.15 259.54 219.15 223.54 219.15 223.54 183.15 253.54 183.15 259.54 183.15 259.54 177.15 259.54 168.15 259.54 162.15 253.54 162.15"/>
    <g>
      <rect class="cls-1" x="219.33" y="166.01" width="1.2" height="1.2"/>
      <rect class="cls-1" x="219.33" y="163.1" width="1.2" height="1.2"/>
    </g>
  </g>
  <g>
    <g>
      <path class="cls-3" d="M437.71,183.15v6h6.32c-3.89,3.81-6.32,9.12-6.32,15,0,11.6,9.4,21,21,21s21-9.4,21-21c0-5.88-2.42-11.19-6.32-15h6.32v-6h-42ZM473.71,204.15c0,8.28-6.72,15-15,15s-15-6.72-15-15,6.72-15,15-15,15,6.72,15,15Z"/>
      <polygon class="cls-3" points="509.85 183.15 495.85 195.97 495.85 183.15 489.85 183.15 489.85 225.15 495.85 225.15 495.85 204.1 495.86 204.1 509.85 191.28 509.85 225.15 515.85 225.15 515.85 183.15 509.85 183.15"/>
    </g>
    <path class="cls-2" d="M462.04,183.44c-3.52-7.3-10.23-12.75-18.32-14.59v-.7h22v-6h-28v12c9.53,0,17.56,6.35,20.13,15.04.29-.02.58-.04.87-.04.01,0,.03,0,.04,0,.48,0,.96.03,1.43.07.38.04.75.1,1.12.17.09.02.19.02.28.04.92.18,1.81.45,2.66.79,5.54,2.2,9.46,7.61,9.46,13.93,0,8.28-6.72,15-15,15s-15-6.72-15-15h-6c0,11.6,9.4,21,21,21s21-9.4,21-21c0-10.46-7.66-19.12-17.68-20.71Z"/>
    <g>
      <rect class="cls-1" x="462.72" y="165.98" width="1.2" height="1.2"/>
      <rect class="cls-1" x="462.72" y="163.07" width="1.2" height="1.2"/>
    </g>
  </g>
</svg>